<?xml version="1.0" encoding="UTF-8" standalone="no"?>
<svg
   xmlns:dc="http://purl.org/dc/elements/1.1/"
   xmlns:cc="http://creativecommons.org/ns#"
   xmlns:rdf="http://www.w3.org/1999/02/22-rdf-syntax-ns#"
   xmlns:svg="http://www.w3.org/2000/svg"
   xmlns="http://www.w3.org/2000/svg"
   width="356.32pt"
   height="503.93pt"
   viewBox="0 0 356.32 503.93"
   version="1.1"
   id="svg3336">
  <metadata
     id="metadata3411">
    <rdf:RDF>
      <cc:Work
         rdf:about="">
        <dc:format>image/svg+xml</dc:format>
        <dc:type
           rdf:resource="http://purl.org/dc/dcmitype/StillImage" />
        <dc:title></dc:title>
      </cc:Work>
    </rdf:RDF>
  </metadata>
  <defs
     id="defs3409" />
  <g
     id="surface3858">
    <path
       style=" stroke:none;fill-rule:evenodd;fill:rgb(13.729858%,12.159729%,12.548828%);fill-opacity:1;"
       d="M 56.394531 2.027344 C 56.394531 2.234375 56.394531 2.445313 56.394531 2.652344 C 48.546875 0.835938 39.007813 3.230469 32.800781 5.5625 C 20.351563 11.046875 11.171875 20.210938 5.152344 32.585938 C 4.539063 32.296875 4.523438 31.410156 4.53125 30.507813 C 7.8125 23.488281 11.96875 17.40625 17.417969 12.628906 C 22.894531 8.117188 29.382813 3.84375 36.75 1.613281 C 42.933594 -0.335938 49.847656 -0.878906 56.394531 2.027344 "
       id="path3339" />
    <path
       style=" stroke:none;fill-rule:evenodd;fill:rgb(13.729858%,12.159729%,12.548828%);fill-opacity:1;"
       d="M 67.828125 14.292969 C 69.902344 17.648438 71.296875 23.929688 73.449219 26.636719 C 75.601563 29.347656 76.738281 30.546875 76.742188 35.375 C 76.746094 39.101563 76.109375 43.605469 74.96875 47.785156 C 74.742188 48.480469 74.105469 46.921875 73.855469 46.304688 C 75.5 38.804688 75.699219 32.765625 71.550781 27.523438 C 69.796875 24.34375 66.957031 18.308594 67.828125 14.292969 "
       id="path3341" />
    <path
       style=" stroke:none;fill-rule:evenodd;fill:rgb(13.729858%,12.159729%,12.548828%);fill-opacity:1;"
       d="M 10.453125 26.035156 C 10.621094 26.007813 10.632813 26.136719 10.765625 26.140625 C 10.675781 28.859375 9.894531 31.3125 9 33.414063 C 9.769531 33.617188 10.402344 33.953125 11.078125 34.246094 C 11.597656 44 17.53125 52.085938 24.691406 57.21875 C 24.785156 57.796875 24.597656 58.09375 24.277344 58.257813 C 15.722656 54.796875 9.128906 47.109375 8.480469 36.429688 C 8.285156 36.210938 8.1875 36.964844 7.855469 36.949219 C 6.632813 36.546875 6.691406 34.859375 5.882813 34.039063 C 6.730469 30.695313 9.199219 28.972656 10.453125 26.035156 "
       id="path3343" />
    <path
       style=" stroke:none;fill-rule:evenodd;fill:rgb(13.729858%,12.159729%,12.548828%);fill-opacity:1;"
       d="M 73.335938 49.628906 C 73.4375 49.628906 73.542969 49.628906 73.644531 49.628906 C 74.652344 51.058594 73.828125 52.851563 73.703125 55.890625 C 73.324219 61.96875 73.957031 66.777344 70.113281 69.792969 C 68.636719 70.828125 66.992188 72.222656 65.21875 72.601563 C 64.460938 72.730469 61.433594 71.695313 62.316406 70.9375 C 66.609375 69.816406 70.292969 67.355469 71.296875 62.601563 C 71.660156 58.246094 71.878906 52.804688 73.335938 49.628906 "
       id="path3345" />
    <path
       style=" stroke:none;fill-rule:evenodd;fill:rgb(13.729858%,12.159729%,12.548828%);fill-opacity:1;"
       d="M 228.09375 52.226563 C 230.492188 56.199219 229.15625 63.367188 225.910156 65.738281 C 227.75 62.132813 227.839844 56.316406 228.09375 52.226563 "
       id="path3347" />
    <path
       style=" stroke:none;fill-rule:evenodd;fill:rgb(13.729858%,12.159729%,12.548828%);fill-opacity:1;"
       d="M 32.28125 58.257813 C 39.054688 65.722656 48.015625 69.371094 58.761719 71.085938 C 59.578125 71.425781 61.675781 73.585938 61.277344 73.742188 C 59.265625 73.488281 57.113281 73.234375 54.9375 72.496094 C 48.003906 70.460938 40.195313 67.535156 34.671875 62.933594 C 33.019531 62.015625 31.507813 60.070313 31.136719 57.527344 C 31.621094 57.476563 32.292969 58 32.28125 58.257813 "
       id="path3349" />
    <path
       style=" stroke:none;fill-rule:evenodd;fill:rgb(13.729858%,12.159729%,12.548828%);fill-opacity:1;"
       d="M 54.625 235.882813 C 52.507813 246.484375 44.390625 301.160156 47.972656 333.164063 C 60.90625 336.601563 75.417969 337.585938 88.300781 335.453125 C 93.660156 297.78125 104.75 264.132813 123.117188 238.582031 C 113.40625 239.515625 113.15625 249.3125 108.566406 255.003906 C 107.5 251.820313 108.226563 246.765625 109.296875 243.363281 C 99.929688 247.570313 81.382813 258.539063 74.894531 269.246094 C 74.371094 269.402344 72.140625 270.164063 71.464844 270.179688 C 66.191406 260.964844 63.789063 248.347656 61.382813 236.609375 C 58.933594 236.917969 56.59375 236.542969 54.625 235.882813 Z M 56.082031 228.398438 C 57.546875 227.957031 58.875 227.382813 59.71875 226.320313 C 59.089844 223.136719 59.125 219.292969 58.367188 216.238281 C 57.410156 220.488281 57.054688 223.96875 56.082031 228.398438 Z M 64.5 182.667969 C 63.222656 195.839844 61.5 210.582031 63.253906 223.304688 C 71.289063 213.289063 77.734375 196.359375 80.609375 181.417969 C 76.339844 183.351563 69.726563 183.269531 64.5 182.667969 Z M 128.316406 192.644531 C 128.148438 179.957031 121.414063 168.863281 109.089844 171.128906 C 107.378906 177.726563 98.859375 179.859375 92.769531 176.949219 C 89.070313 184.28125 88.378906 190.894531 84.246094 202.828125 C 80.117188 214.765625 78.140625 232.003906 64.914063 236.402344 C 65.925781 247.175781 70.191406 258.105469 72.605469 266.644531 C 82.773438 255.496094 95.734375 247.121094 110.230469 240.765625 C 116.023438 225.179688 129.625 211.375 128.316406 192.644531 Z M 34.878906 165.828125 C 36.695313 168.492188 34.492188 173.960938 34.878906 177.46875 C 37.601563 179.425781 40.953125 182.214844 44.648438 182.355469 C 45.851563 182.398438 48.140625 181.324219 49.324219 181.003906 C 53.539063 179.855469 58.382813 177.210938 61.902344 175.808594 C 60.417969 171.207031 58.292969 167.167969 56.707031 162.191406 C 49.757813 160.570313 40.972656 163.074219 34.878906 165.828125 Z M 29.160156 164.0625 C 27.976563 168.417969 29.078125 172.574219 32.28125 173.730469 C 32.378906 170.921875 32.972656 168.519531 33.214844 166.140625 C 32.601563 166.140625 31.839844 165.820313 31.96875 165.414063 C 32.359375 165.226563 32.828125 164.804688 33.214844 165.207031 C 34.640625 163.964844 35.699219 163.921875 37.351563 162.90625 C 38.757813 160.957031 37.871094 158.746094 37.164063 157.824219 C 34.886719 160.292969 32.78125 162.933594 29.160156 164.0625 Z M 26.460938 177.46875 C 25.929688 175.464844 25.792969 172.910156 26.667969 171.234375 C 28.664063 174.628906 27.726563 180.777344 31.03125 183.707031 C 34.078125 187.402344 42.351563 189.09375 45.6875 184.640625 C 45.371094 184.382813 44.472656 184.574219 43.957031 184.558594 C 39.910156 182.414063 33.496094 181.203125 32.175781 175.285156 C 31.613281 174.707031 30.316406 173.839844 29.015625 173.300781 C 25.539063 171.28125 26.4375 165.179688 28.121094 161.878906 C 29.980469 161.175781 31.5625 160.191406 32.800781 158.863281 C 29.910156 157.355469 28.335938 154.53125 25.941406 152.523438 C 17.972656 161.066406 22.953125 172.070313 26.460938 177.46875 Z M 117.195313 164.894531 C 131.710938 171.300781 137.199219 194.359375 131.746094 211.5625 C 129.703125 218.445313 121.039063 227.214844 121.351563 236.921875 C 136.136719 231.671875 151.351563 226.175781 160.882813 215.304688 C 159.042969 213.574219 155.773438 209.5 153.675781 205.738281 C 144.777344 187.441406 141.40625 163.617188 129.148438 148.679688 C 127.804688 155.972656 122.039063 160.261719 117.195313 164.894531 Z M 143.074219 166.660156 C 147.023438 177.089844 152.4375 197.117188 158.976563 207.820313 C 171.429688 195.246094 178.078125 175.796875 181.945313 155.332031 C 173.765625 161.496094 159.617188 158.71875 153.054688 156.058594 C 146.386719 153.359375 138.507813 147.316406 129.042969 146.496094 C 135.980469 149.589844 141.609375 163.015625 143.074219 166.660156 Z M 6.609375 95.882813 C -1.125 117.828125 4.363281 147.007813 19.183594 160.21875 C 19.09375 155.101563 22.46875 153.453125 24.796875 150.757813 C 19.976563 143.738281 16.546875 135.550781 13.78125 126.855469 C 13.035156 121.867188 9.910156 118.199219 10.351563 112.71875 C 18.109375 127.574219 21.957031 146.515625 34.046875 157.824219 C 36.878906 152.84375 39.972656 157.175781 39.453125 161.984375 C 44.046875 159.910156 48.832031 159.21875 54.523438 159.800781 C 55.863281 159.875 57.773438 160.804688 58.140625 161.929688 C 59.398438 165.828125 61.511719 171.253906 63.566406 175.078125 C 82.792969 170.605469 99.203125 162.425781 114.179688 153.355469 C 94.574219 150.4375 80.042969 139.519531 65.957031 127.683594 C 51.285156 114.472656 37.824219 99.410156 26.773438 82.265625 C 25.621094 80.769531 24.851563 78.746094 24.171875 76.757813 C 20.710938 85.492188 14.394531 91.804688 6.609375 95.882813 Z M 250.4375 81.226563 C 248.648438 78.503906 246.847656 75.21875 243.886719 74.703125 C 243.019531 74.609375 241.714844 74.578125 241.085938 74.886719 C 205.226563 84.289063 163.335938 105.453125 145.582031 117.867188 C 136.523438 124.199219 132.640625 127.535156 127.589844 132.570313 C 125.949219 134.203125 129.242188 137.351563 129.355469 140.363281 C 129.4375 142.617188 128.21875 144.011719 129.25 145.457031 C 141.332031 145.003906 148.945313 153.554688 160.121094 155.539063 C 168.46875 157.082031 175.804688 154.464844 182.050781 151.796875 C 182.675781 152.039063 183.117188 152.464844 183.609375 152.835938 C 184.222656 159.183594 182.128906 164.5625 180.804688 170.921875 C 196.972656 150.699219 216.6875 132.207031 238.902344 119.371094 C 240.484375 118.429688 252.3125 111.613281 257.609375 110.015625 C 256.789063 100 255.261719 88.261719 250.4375 81.226563 Z M 284.425781 65.84375 C 280.394531 65.339844 278.375 63.890625 274.863281 63.765625 C 272.554688 65.585938 270.765625 68.246094 267.484375 69.792969 C 260.703125 71.171875 254.085938 73.199219 246.90625 73.949219 C 251.023438 78.320313 255.707031 82.511719 257.089844 89.019531 C 263.128906 85.636719 269.421875 80.957031 277.878906 81.019531 C 279.796875 80.234375 281.34375 79.078125 282.449219 77.484375 C 282.070313 76.125 282.417969 73.855469 282.347656 72.390625 C 283.621094 72.777344 284.160156 75.425781 284.632813 76.445313 C 285.664063 78.171875 286.867188 79.359375 289.105469 80.082031 C 291.683594 80.917969 294.1875 83.265625 296.273438 83.617188 C 302.332031 84.640625 308.121094 83.65625 308.746094 76.859375 C 305.429688 74.804688 303.175781 78.300781 301.160156 79.980469 C 300.835938 79.609375 300.328125 79.421875 300.222656 78.835938 C 300.863281 76.945313 302.511719 73.535156 302.511719 73.535156 L 304.277344 73.429688 C 304.277344 73.429688 307.78125 74.292969 308.851563 75.40625 C 310.289063 72.484375 311.609375 67.878906 311.449219 64.390625 C 312.402344 62.164063 311.65625 59.019531 310.097656 57.738281 C 300.371094 58.933594 292.984375 63.179688 284.425781 65.84375 Z M 219.050781 47.863281 C 218.109375 48.453125 207.480469 49.660156 205.4375 49.839844 C 203.800781 51.804688 202.425781 54.03125 200.238281 55.449219 C 192.496094 56.804688 178.0625 55.074219 174.453125 54.640625 C 177.339844 59.546875 177.429688 66.03125 178.203125 72.289063 C 184.652344 70.375 191.3125 71.433594 196.496094 69.378906 C 196.679688 69.109375 196.390625 68.878906 196.808594 68.753906 C 205.78125 77.421875 226.902344 70.617188 238.976563 68.640625 C 240.9375 64.507813 246.050781 63.15625 245.761719 56.488281 C 244.148438 54.636719 240.855469 52.042969 238.6875 51.175781 C 233.273438 50.886719 228.351563 51.019531 223.3125 50.046875 C 223.964844 52.476563 226.417969 53.402344 226.417969 55.652344 C 226.421875 57.5625 223.058594 60.84375 223.519531 63.660156 C 219.894531 64.785156 218.191406 61.859375 216.972656 59.503906 C 215.882813 65.046875 209.652344 69.914063 203.980469 67.816406 C 210.199219 66.453125 214.195313 62.304688 215.308594 56.179688 C 214.527344 55.816406 213.769531 55.433594 213.542969 54.515625 C 214.773438 54.746094 215.761719 55.136719 217.074219 55.035156 C 217.421875 54.824219 217.414063 54.265625 218.113281 54.410156 C 218.515625 54.84375 218.761719 55.429688 219.050781 55.96875 C 217.742188 58.160156 219.167969 61.234375 221.128906 62 C 221.199219 59.195313 223.285156 57.335938 224.144531 54.722656 C 222.242188 52.640625 220.617188 50.28125 219.050781 47.863281 Z M 239.316406 70.3125 C 231.074219 73.527344 221.734375 75.382813 213.542969 75.300781 C 209.527344 75.425781 201.914063 75.390625 198.574219 71.351563 C 197.835938 71.878906 196.972656 72.394531 196.082031 73.015625 C 185.277344 71.964844 180.660156 73.984375 178.351563 74.128906 C 178.355469 78.171875 177.5625 80.1875 177.0625 84.449219 C 176.328125 86.976563 176.039063 88.996094 172.070313 89.75 C 170.84375 89.863281 167.9375 90.535156 165.421875 90.996094 C 133.023438 96.9375 113.535156 104.585938 111.65625 109.496094 C 113.917969 119.53125 119.269531 126.171875 125.820313 132.464844 C 129.9375 126.847656 135.011719 122.183594 140.789063 118.226563 C 165.996094 101.175781 194.417969 86.003906 225.808594 75.925781 C 231.308594 74.5 243.019531 71.097656 245.140625 73.015625 C 247.988281 72.117188 257.3125 70.230469 263.742188 68.234375 C 269.3125 66.507813 270.609375 60.285156 277.566406 62.207031 C 282.171875 63.476563 284.378906 63.175781 288.789063 61.582031 C 292.820313 60.125 304.367188 56.367188 305.835938 55.867188 C 307.546875 55.507813 310.289063 55.363281 311.242188 56.59375 C 314.617188 61.726563 314.019531 72.230469 310.097656 76.652344 C 311.152344 80.191406 308.847656 83.367188 307.292969 84.863281 C 299.558594 90.226563 290.878906 82.753906 283.59375 80.082031 C 282.886719 80.515625 281.289063 82.78125 280.789063 82.992188 C 272.542969 82.523438 258.253906 91.183594 257.921875 91.101563 C 259.738281 97.851563 261.035156 105.082031 259.480469 112.304688 C 231.761719 126.671875 213.714844 139.953125 199.304688 153.5625 C 193.527344 159.777344 186.765625 165 182.152344 172.378906 C 177.132813 179.289063 175.449219 189.679688 171.554688 197.425781 C 168.886719 202.441406 164.789063 206.761719 160.535156 210.519531 C 161.492188 212.164063 162.851563 213.402344 164.070313 214.78125 C 156.75 227.609375 140.621094 231.140625 127.691406 237.230469 C 125.277344 241.644531 114.328125 255.363281 104.722656 282.859375 C 98.746094 299.964844 94.769531 317.351563 92.042969 335.660156 C 91.355469 336.117188 90.898438 336.796875 90.378906 337.425781 C 86.71875 338.078125 81.65625 338.738281 78.636719 339.089844 C 77.519531 345.515625 76.367188 352.164063 76.246094 358.628906 C 77.625 363.089844 73.699219 369.210938 73.855469 369.230469 C 75.214844 375.203125 80.125 379.082031 83.3125 383.886719 C 83.6875 386.160156 83.828125 388.757813 83.207031 390.433594 C 82.824219 391.128906 82.496094 391.453125 81.960938 392.304688 C 79.503906 393.785156 74.15625 394.800781 72.503906 391.785156 C 72.289063 392.003906 72.632813 392.550781 72.503906 393.03125 C 71.835938 393.574219 70.03125 394.152344 70.007813 393.964844 C 61.574219 394.175781 53.238281 391.40625 48.078125 385.859375 C 48.125 385.183594 47.789063 384.929688 47.972656 384.402344 C 53.386719 388.4375 62.714844 392.789063 71.257813 390.015625 C 71.386719 388.835938 71.21875 387.625 70.839844 386.585938 C 71.035156 385.996094 74.714844 385.546875 75.515625 385.027344 C 76.328125 385.5 76.425781 386.421875 76.453125 386.792969 C 75.027344 386.796875 74.054688 387.230469 72.710938 387.835938 C 72.644531 389.148438 73.078125 389.9375 73.542969 390.746094 C 76.078125 391.203125 78.949219 390.453125 81.027344 389.914063 C 82.066406 386.796875 81.957031 383.660156 78.945313 381.078125 C 75.03125 377.824219 73.46875 372.214844 70.734375 367.773438 C 71.386719 365.167969 73.28125 363.515625 74.378906 361.355469 C 73.621094 353.667969 75.136719 346.394531 76.660156 339.191406 C 69.925781 339.390625 63.507813 338.683594 57.847656 337.839844 C 59.746094 344.011719 61.097656 348.527344 60.964844 354.472656 C 60.421875 354.929688 57.859375 357.289063 57.015625 357.902344 C 57.441406 360.410156 57.9375 363.09375 59.09375 365.070313 C 58.972656 373.453125 53.640625 377.371094 50.988281 383.710938 C 50.386719 383.171875 49.457031 382.957031 48.703125 382.566406 C 49.867188 375.414063 55.710938 372.878906 56.808594 364.96875 C 55.058594 361.945313 53.335938 355.898438 57.328125 354.160156 C 56.949219 347.71875 56.054688 341.136719 53.273438 336.59375 C 52.785156 336.519531 47.480469 334.773438 45.167969 333.890625 C 42.0625 319.234375 43.050781 312.363281 44.855469 289.925781 C 46.660156 267.488281 48.003906 253.078125 51.820313 234.945313 C 49.4375 233.378906 45.804688 232.507813 44.960938 229.75 C 47.375 230.085938 49.683594 230.515625 52.445313 229.851563 C 55.632813 214.488281 58.347656 197.035156 62.835938 182.148438 C 61.246094 181.480469 59.582031 180.707031 58.054688 180.277344 C 55.308594 181.640625 53.136719 182.871094 49.949219 184.121094 C 49.800781 191.164063 39.300781 191.164063 36.335938 189.941406 C 26.09375 185.75 20.414063 175.460938 18.5625 162.917969 C 4.222656 150.671875 0 129.125 0 118.84375 C 0 110.613281 3.378906 96.886719 5.152344 92.761719 C 5.761719 91.347656 9.835938 88.910156 11.285156 87.980469 C 16.78125 84.464844 21.320313 80.449219 23.859375 74.15625 C 23.804688 71.621094 24.832031 69.96875 26.773438 69.171875 C 26.742188 71.785156 25.863281 73.867188 27.8125 76.238281 C 28.582031 71.578125 27.191406 64.476563 25.316406 60.023438 C 32.296875 61.679688 33.011719 71.691406 31.863281 79.25 C 31.664063 80.582031 30.777344 81.394531 30.929688 82.472656 C 31.035156 83.230469 36.363281 90.304688 42.511719 97.945313 C 48.660156 105.589844 55.34375 112.726563 62.421875 119.785156 C 65.777344 104.765625 66.128906 91.707031 65.644531 74.851563 C 66.34375 74.617188 67.136719 74.476563 67.617188 74.019531 C 68.207031 74.417969 68.15625 75.007813 68.554688 75.371094 C 71.3125 90.898438 68.734375 106.199219 64.292969 119.683594 C 63.875 120.464844 63.960938 120.648438 63.589844 120.898438 C 76.589844 133.316406 90.183594 143.960938 108.808594 149.914063 C 112.597656 151.214844 118.246094 150.28125 121.871094 148.265625 C 123.28125 145.117188 127.5625 142.011719 126.757813 137.664063 C 122.308594 133.625 116.882813 129.050781 114.257813 123.210938 C 112.304688 118.851563 110.9375 115.847656 109.503906 111.054688 C 106.273438 100.398438 105.128906 83.851563 113.140625 75.925781 C 110.171875 84.96875 107.472656 95.203125 110.648438 106.378906 C 115.292969 97.546875 124.359375 89.484375 133.199219 85.175781 C 134.851563 84.371094 139.082031 82.527344 140.0625 84.136719 C 129.933594 88.835938 121.179688 94.910156 114.90625 103.46875 C 132.132813 94.628906 152.457031 89.710938 173.214844 86.734375 C 176.753906 75.644531 176.089844 59.246094 170.097656 51.605469 C 150.59375 56.710938 126.046875 60.597656 103.164063 57.632813 C 101.410156 57.238281 97.175781 55.007813 95.058594 55.449219 C 93.023438 55.875 90.886719 58.191406 88.71875 58.984375 C 84.957031 60.355469 81.1875 60.980469 77.078125 60.335938 C 84.40625 57.6875 91.210938 52.089844 99.421875 53.785156 C 120.679688 56.8125 144.257813 52.871094 166.5625 48.070313 C 168.15625 48.652344 170.269531 49.285156 171.761719 50.667969 C 172.148438 51.027344 172.585938 52.316406 173.214844 52.644531 C 174.105469 53.105469 191.539063 54.371094 196.914063 53.683594 C 199.679688 53.328125 200.777344 48.941406 202.941406 48.175781 C 208.1875 47.347656 212.925781 46.839844 218.324219 45.890625 C 219.695313 46.671875 221.0625 47.089844 222.167969 48.277344 C 228.109375 49.496094 237.8125 47.449219 242.125 51.1875 C 243.308594 52.328125 244.894531 53.773438 246.050781 54.640625 C 250.398438 58.011719 245.351563 63.492188 244.03125 65.324219 C 242.152344 67.921875 240.855469 69.074219 239.316406 70.3125 "
       id="path3351" />
    <path
       style=" stroke:none;fill-rule:evenodd;fill:rgb(13.729858%,12.159729%,12.548828%);fill-opacity:1;"
       d="M 306.128906 115.796875 C 314.5 114.714844 325.914063 113.226563 334.105469 111.777344 C 334.664063 111.679688 336.203125 110.5625 336.90625 110.554688 C 339.054688 110.519531 341.871094 114.039063 343.550781 114.75 C 345.21875 116.464844 348.03125 117.960938 347.75 121.042969 C 345.71875 122.550781 341.769531 121.753906 339.707031 122.617188 C 337.824219 123.402344 335.929688 124.773438 334.28125 125.941406 C 332.621094 127.121094 331.074219 129.085938 328.859375 128.914063 C 329.832031 124.753906 333.203125 121.484375 334.28125 116.847656 C 331.992188 115.535156 329.191406 116.269531 326.761719 116.496094 C 309.519531 118.117188 292.335938 122.234375 275.175781 124.191406 C 274.628906 126.730469 274.144531 129.21875 273.253906 131.886719 C 272.582031 133.898438 271.675781 137.605469 269.40625 137.65625 C 267.109375 137.710938 264.992188 133.191406 265.382813 130.488281 C 265.761719 127.867188 269.269531 125.445313 270.277344 122.269531 C 270.972656 120.101563 270.234375 118.082031 270.628906 115.449219 C 273.355469 115.925781 273.558594 118.929688 275.175781 120.519531 C 283.824219 119.609375 291.835938 118.0625 300.183594 116.847656 C 300.007813 113.804688 300.441406 110.773438 299.132813 108.105469 C 298.546875 106.898438 295.722656 105.375 295.984375 103.90625 C 296.214844 102.644531 299.394531 102.285156 301.40625 102.683594 C 303.121094 103.023438 307.554688 104.859375 307.878906 106.882813 C 308.089844 108.203125 307.230469 110.179688 307.003906 111.425781 C 306.753906 112.804688 306.269531 113.988281 306.128906 115.796875 "
       id="path3353" />
    <path
       style=" stroke:none;fill-rule:evenodd;fill:rgb(13.729858%,12.159729%,12.548828%);fill-opacity:1;"
       d="M 304.90625 120.34375 C 307.03125 119.464844 312.25 124.121094 312.425781 126.464844 C 312.511719 127.65625 311.632813 128.917969 311.375 129.964844 C 310.71875 132.636719 309.835938 139.140625 311.550781 141.328125 C 312.996094 143.175781 318.914063 143.164063 322.042969 142.378906 C 324.890625 141.664063 326.019531 140.09375 327.8125 139.929688 C 331.03125 139.636719 334.113281 142.238281 333.9375 144.128906 C 333.6875 146.703125 327.757813 146.878906 324.316406 147.101563 C 317.664063 147.527344 309.996094 148.332031 307.175781 143.777344 C 304.5625 139.558594 306.652344 132.703125 305.429688 126.464844 C 305.121094 124.902344 302.476563 121.351563 304.90625 120.34375 "
       id="path3355" />
    <path
       style=" stroke:none;fill-rule:evenodd;fill:rgb(13.729858%,12.159729%,12.548828%);fill-opacity:1;"
       d="M 277.273438 153.921875 C 277.742188 151.730469 279.683594 150.195313 281.121094 148.324219 C 283.929688 144.667969 286.355469 141.039063 288.292969 136.085938 C 289.203125 133.75 290.507813 130.6875 290.21875 128.390625 C 290.03125 126.953125 287.726563 124.980469 289.339844 123.667969 C 292.320313 124.164063 298.058594 126.667969 298.257813 129.613281 C 298.339844 130.769531 297.148438 132.070313 296.511719 133.636719 C 293.578125 140.820313 289.695313 145.382813 284.269531 149.722656 C 282.148438 151.421875 279.90625 153.261719 277.273438 153.921875 "
       id="path3357" />
    <path
       style=" stroke:none;fill-rule:evenodd;fill:rgb(13.729858%,12.159729%,12.548828%);fill-opacity:1;"
       d="M 314.523438 151.820313 C 316.613281 152.449219 318.578125 152.574219 320.992188 153.394531 C 322.488281 153.90625 325.511719 155.082031 325.1875 157.066406 C 324.8125 159.410156 318.710938 159.007813 316.273438 159.167969 C 312.175781 159.433594 309.769531 159.785156 306.128906 159.867188 C 306.121094 161.039063 307.515625 161.070313 307.703125 162.488281 C 307.84375 163.519531 307.207031 164.335938 307.003906 165.460938 C 306.230469 169.765625 306.84375 175.726563 306.304688 180.152344 C 312.265625 179.363281 320.28125 179.328125 326.414063 178.925781 C 327.753906 178.839844 329.15625 178.65625 330.261719 178.226563 C 331.582031 177.710938 332.449219 176.285156 333.761719 176.128906 C 336.144531 175.847656 341.59375 178.09375 343.550781 179.625 C 344.9375 180.714844 346.535156 183.214844 344.601563 184.871094 C 342.9375 186.300781 338.132813 185.332031 334.460938 185.046875 C 317.035156 183.699219 298.488281 184.589844 282.871094 187.84375 C 281.070313 188.222656 278.878906 188.777344 276.75 189.242188 C 272.472656 190.183594 270.910156 191.257813 267.480469 189.242188 C 266.800781 188.84375 265.136719 188.136719 265.382813 187.144531 C 265.660156 186.027344 272.359375 185.644531 273.949219 185.398438 C 282.972656 183.984375 291.703125 182.335938 300.53125 181.023438 C 300.136719 174.484375 301.429688 166.257813 299.65625 161.089844 C 294.578125 160.746094 287.308594 165.910156 284.792969 160.214844 C 290.183594 159.65625 294.828125 158.441406 300.183594 157.242188 C 304.011719 156.382813 308.113281 155.921875 311.023438 154.796875 C 312.503906 154.222656 313.3125 152.660156 314.523438 151.820313 "
       id="path3359" />
    <path
       style=" stroke:none;fill-rule:evenodd;fill:rgb(13.729858%,12.159729%,12.548828%);fill-opacity:1;"
       d="M 310.324219 222.296875 C 312.511719 222.503906 315.15625 223.242188 317.496094 224.570313 C 319.117188 225.488281 322.207031 227.621094 321.867188 229.464844 C 321.558594 231.144531 314.945313 233.058594 313.300781 233.660156 C 309.917969 234.902344 306.863281 235.695313 303.855469 236.808594 C 307.238281 239.082031 310.042969 241.929688 310.148438 247.476563 C 312.742188 247.007813 315.417969 246.871094 318.195313 245.902344 C 319.6875 245.382813 321.074219 243.949219 322.390625 243.804688 C 324.589844 243.558594 327.695313 244.75 329.386719 245.554688 C 331.308594 246.46875 333.578125 247.675781 332.707031 250.621094 C 329.707031 251.867188 325.578125 251.496094 321.867188 251.671875 C 318.0625 251.855469 314.3125 252.386719 310.851563 252.546875 C 310.632813 256.558594 311.4375 261.050781 311.375 265.488281 C 316.621094 264.4375 323.796875 264.96875 328.339844 263.390625 C 330.203125 262.738281 331.1875 261.195313 332.707031 260.414063 C 336.984375 260.476563 340.691406 261.285156 344.425781 262.863281 C 346.148438 263.597656 348.542969 265.078125 348.269531 267.234375 C 347.847656 270.640625 341.960938 268.949219 339.179688 268.984375 C 331.453125 269.09375 319.300781 269.398438 312.074219 270.734375 C 312.011719 281.585938 311.925781 291.660156 311.023438 301.160156 C 310.734375 304.230469 310.511719 307.507813 309.625 310.253906 C 309.195313 311.597656 306.523438 318.582031 304.554688 318.648438 C 302.859375 318.710938 301.636719 315.667969 300.53125 314.453125 C 297.859375 311.507813 294.421875 309.550781 291.089844 307.632813 C 289.40625 306.664063 287.199219 306.351563 286.542969 304.136719 C 291.066406 303.902344 296.703125 306.277344 301.40625 304.484375 C 305.464844 297.125 303.6875 281.707031 303.855469 272.132813 C 293.40625 273.519531 281.566406 276.582031 271.328125 279.476563 C 267.667969 280.515625 266.429688 280.90625 263.109375 279.304688 C 261.964844 278.746094 260.691406 278.207031 259.960938 277.378906 C 260.882813 275.878906 263.394531 276.160156 265.207031 275.804688 C 270.671875 274.734375 276.300781 273.242188 281.824219 271.960938 C 289.253906 270.230469 296.738281 268.832031 304.03125 267.0625 C 303.710938 262.714844 303.523438 258.238281 303.15625 253.945313 C 298.027344 254.460938 292.214844 256.164063 287.242188 257.445313 C 282.996094 258.539063 279.980469 259.238281 277.101563 256.21875 C 278.511719 254.511719 281.148438 254.628906 283.222656 254.121094 C 289.621094 252.546875 296.617188 250.875 302.980469 249.226563 C 302.914063 245.609375 302.300781 239.117188 299.484375 238.558594 C 298.445313 238.351563 296.078125 239.332031 294.410156 239.78125 C 289.953125 240.984375 283.761719 243.074219 279.199219 242.578125 C 279.535156 241.128906 281.855469 241.03125 283.222656 240.480469 C 292.996094 236.5625 302.140625 231.152344 310.5 225.617188 C 310.480469 224.316406 308.835938 223.085938 310.324219 222.296875 "
       id="path3361" />
    <path
       style=" stroke:none;fill-rule:evenodd;fill:rgb(13.729858%,12.159729%,12.548828%);fill-opacity:1;"
       d="M 323.265625 396.117188 C 323.265625 391.972656 323.769531 387.527344 323.265625 384.578125 C 323.078125 383.488281 322.296875 382.089844 321.34375 382.304688 C 315.640625 383.582031 309.1875 385.210938 303.15625 386.5 C 303.566406 387.851563 303.394531 391.261719 303.679688 393.320313 C 306.324219 392.421875 310.03125 392.496094 312.601563 391.046875 C 313.445313 390.570313 313.640625 389.824219 314.523438 389.648438 C 316.394531 389.265625 320.371094 390.195313 320.292969 391.921875 C 320.257813 392.730469 318.972656 393.4375 318.367188 393.667969 C 316.449219 394.414063 313.773438 394.558594 311.199219 395.066406 C 308.683594 395.570313 306.230469 396.472656 303.679688 396.292969 C 303.445313 398.480469 303.441406 400.792969 303.679688 403.113281 C 306.226563 402.03125 309.882813 401.84375 312.601563 400.140625 C 313.460938 399.597656 313.671875 398.679688 314.695313 398.566406 C 316.199219 398.394531 320.855469 399.984375 320.816406 401.542969 C 320.785156 403.03125 318.386719 403.207031 317.148438 403.460938 C 312.195313 404.488281 308.007813 405.242188 303.507813 406.261719 C 303.578125 408.960938 302.925781 411.84375 303.332031 414.304688 C 305.597656 413.664063 308.019531 413.1875 310.675781 412.558594 C 313.160156 411.964844 315.738281 410.28125 317.671875 410.28125 C 319.796875 410.28125 321.015625 411.914063 322.917969 412.730469 C 323.394531 407.351563 323.265625 402.386719 323.265625 396.117188 Z M 318.195313 366.390625 C 321.535156 365.574219 325.460938 365.824219 328.511719 364.464844 C 329.320313 364.105469 330.164063 363.0625 330.960938 362.890625 C 332.367188 362.589844 334.933594 363.324219 336.730469 363.765625 C 339.035156 364.335938 343.707031 365.210938 343.203125 367.789063 C 342.871094 369.472656 338.140625 369.011719 335.855469 369.011719 C 327.761719 369.015625 320.644531 369.105469 314.347656 370.585938 C 314.875 371.804688 315.953125 372.480469 316.445313 373.734375 C 314.929688 376.589844 312.636719 378.667969 311.199219 381.601563 C 314.054688 381.011719 318.273438 379.9375 321.519531 378.804688 C 322.671875 378.402344 323.855469 377.582031 324.664063 377.582031 C 326.175781 377.578125 327.410156 378.976563 328.511719 379.855469 C 330.230469 381.226563 332.894531 382.832031 330.085938 385.101563 C 330.070313 386.921875 330.0625 388.910156 329.910156 391.046875 C 329.339844 399.144531 331.105469 410.644531 329.210938 417.101563 C 328.496094 419.550781 327.183594 422.179688 325.015625 422.875 C 322.210938 421.003906 322.175781 415.949219 318.546875 415.179688 C 314.269531 414.273438 307.703125 416.832031 303.507813 417.101563 C 303.1875 419.953125 300.835938 418.953125 299.484375 417.277344 C 295.800781 412.710938 297.925781 408.058594 298.085938 401.1875 C 298.113281 399.863281 298.121094 398.648438 298.257813 397.339844 C 298.828125 391.949219 297.726563 386.976563 297.382813 383 C 300.246094 382.738281 303.445313 383.460938 307.003906 382.652344 C 307.84375 379.703125 310.054688 375.71875 308.574219 372.160156 C 304.523438 372.089844 299.714844 373.492188 295.636719 374.609375 C 294.199219 375.003906 292.597656 375.683594 291.613281 375.660156 C 289.773438 375.605469 287.863281 374.09375 286.71875 372.683594 C 295.929688 371.050781 304.746094 369.03125 313.996094 367.4375 C 315.09375 365.578125 316.753906 363.15625 318.019531 360.445313 C 319.132813 358.054688 320.980469 354.734375 320.816406 352.402344 C 320.730469 351.105469 319.8125 350.648438 319.765625 349.425781 C 322.976563 347.503906 328.972656 353.210938 329.035156 355.199219 C 329.09375 356.933594 324.847656 359.984375 323.789063 360.964844 C 321.550781 363.0625 319.449219 364.46875 318.195313 366.390625 "
       id="path3363" />
    <path
       style=" stroke:none;fill-rule:evenodd;fill:rgb(13.729858%,12.159729%,12.548828%);fill-opacity:1;"
       d="M 296.511719 354.324219 C 299.535156 355.324219 302.167969 356.707031 305.429688 357.472656 C 307.015625 359.332031 309.34375 364.34375 306.652344 366.738281 C 304.925781 367.367188 303.136719 366.289063 302.109375 365.339844 C 299.558594 362.996094 297.660156 358.011719 296.335938 354.847656 C 296.425781 354.710938 296.519531 354.566406 296.511719 354.324219 "
       id="path3365" />
    <path
       style=" stroke:none;fill-rule:evenodd;fill:rgb(13.729858%,12.159729%,12.548828%);fill-opacity:1;"
       d="M 282.347656 371.984375 C 278.460938 372.507813 276.152344 369.707031 273.949219 367.089844 C 272.488281 365.351563 270.203125 362.71875 270.105469 360.796875 C 270.78125 360.132813 272.808594 360.941406 274.652344 361.140625 C 276.316406 361.324219 277.890625 361.117188 278.851563 361.492188 C 279.816406 361.875 281.191406 363.878906 281.648438 364.816406 C 282.546875 366.660156 283.792969 370.039063 282.347656 371.984375 "
       id="path3367" />
    <path
       style=" stroke:none;fill-rule:evenodd;fill:rgb(13.729858%,12.159729%,12.548828%);fill-opacity:1;"
       d="M 275.351563 404.160156 C 277.546875 405.371094 282.023438 407.375 282.519531 410.105469 C 282.871094 412.042969 281.632813 414.40625 280.945313 416.40625 C 280.25 418.429688 279.472656 420.285156 278.851563 422 C 290.535156 422.535156 303.207031 426.230469 314.347656 428.644531 C 327.046875 431.394531 340.585938 432.824219 356.316406 431.617188 C 355.789063 433.550781 353.484375 434.054688 351.769531 434.765625 C 348.070313 436.292969 344.527344 437.71875 340.578125 439.3125 C 337.484375 440.558594 335.1875 442.132813 331.136719 441.058594 C 327.359375 440.058594 323.554688 438.125 319.59375 436.6875 C 312 433.933594 304.667969 430.789063 296.335938 428.46875 C 289.050781 426.4375 282.359375 424.558594 274.128906 426.546875 C 272.859375 426.851563 271.269531 427.136719 269.753906 427.59375 C 268.375 428.015625 267.027344 429 265.90625 428.992188 C 263.839844 428.984375 263.152344 427.199219 261.011719 426.894531 C 262.316406 425.132813 265.003906 424.890625 267.308594 424.273438 C 269.625 423.652344 272.140625 423.082031 274.476563 422.699219 C 274.773438 419.652344 277.128906 415.464844 276.75 412.03125 C 276.417969 409.03125 273.136719 408.007813 271.851563 405.738281 C 272.761719 400.804688 274.9375 396.242188 275.351563 391.394531 C 270.226563 392.296875 268.117188 398.011719 261.535156 396.292969 C 261.851563 394.578125 263.921875 394.390625 265.207031 393.496094 C 268.605469 391.136719 272.464844 387.304688 275.878906 385.101563 C 276.789063 384.511719 279.625 386.421875 281.121094 387.199219 C 282.628906 387.984375 284.640625 388.769531 284.621094 390.171875 C 284.597656 391.546875 283.089844 391.738281 282.347656 392.621094 C 281.027344 394.179688 280.011719 396.496094 278.851563 398.390625 C 277.617188 400.402344 276.058594 402.113281 275.351563 404.160156 "
       id="path3369" />
    <path
       style=" stroke:none;fill-rule:nonzero;fill:rgb(13.729858%,12.159729%,12.548828%);fill-opacity:1;"
       d="M 54.109375 448.734375 L 47.722656 448.734375 L 47.722656 402.027344 L 54.109375 402.027344 L 54.109375 423.542969 L 67.601563 402.027344 L 74.632813 402.027344 L 60.730469 422.980469 L 74.632813 448.734375 L 67.074219 448.734375 L 54.09375 423.507813 L 54.109375 423.507813 L 54.109375 448.734375 "
       id="path3371" />
    <path
       style=" stroke:none;fill-rule:nonzero;fill:rgb(13.729858%,12.159729%,12.548828%);fill-opacity:1;"
       d="M 89.167969 432.875 L 99.578125 432.875 L 94.34375 407.785156 L 94.371094 407.785156 Z M 90.324219 402.027344 L 98.832031 402.027344 L 109.523438 448.734375 L 102.730469 448.734375 L 100.578125 438.140625 L 88.066406 438.140625 L 85.84375 448.734375 L 79.632813 448.734375 L 90.324219 402.027344 "
       id="path3373" />
    <path
       style=" stroke:none;fill-rule:nonzero;fill:rgb(13.729858%,12.159729%,12.548828%);fill-opacity:1;"
       d="M 122.933594 422.316406 L 128.007813 422.316406 C 131.21875 422.316406 133.402344 421.707031 134.5625 420.480469 C 135.726563 419.253906 136.304688 416.945313 136.304688 413.542969 L 136.304688 414.007813 C 136.304688 411.449219 135.714844 409.6875 134.53125 408.730469 C 133.347656 407.769531 131.171875 407.289063 128.007813 407.289063 L 122.933594 407.289063 Z M 116.542969 402.027344 L 131.339844 402.027344 C 135.203125 402.027344 138.058594 402.976563 139.914063 404.871094 C 141.769531 406.769531 142.695313 409.707031 142.695313 413.679688 L 142.695313 413.214844 C 142.695313 417.472656 141.644531 420.550781 139.550781 422.449219 C 138.160156 423.730469 136.152344 424.582031 133.523438 425 C 136.351563 425.199219 138.3125 425.859375 139.417969 426.984375 C 140.71875 428.332031 141.402344 430.9375 141.46875 434.796875 C 141.515625 437.601563 141.644531 439.949219 141.867188 441.847656 L 142 442.941406 C 142.152344 444.15625 142.3125 445.191406 142.480469 446.050781 C 142.644531 446.914063 142.859375 447.796875 143.125 448.699219 L 136.421875 448.699219 C 136.113281 447.265625 135.886719 446.152344 135.742188 445.355469 C 135.597656 444.5625 135.503906 443.914063 135.460938 443.40625 L 135.363281 442.410156 C 135.171875 440.46875 135.054688 438.316406 135.011719 435.957031 C 134.964844 432.933594 134.398438 430.78125 133.304688 429.5 C 132.214844 428.222656 130.421875 427.582031 127.929688 427.582031 L 122.933594 427.582031 L 122.933594 448.734375 L 116.542969 448.734375 L 116.542969 402.027344 "
       id="path3375" />
    <path
       style=" stroke:none;fill-rule:nonzero;fill:rgb(13.729858%,12.159729%,12.548828%);fill-opacity:1;"
       d="M 159.015625 432.875 L 169.421875 432.875 L 164.1875 407.785156 L 164.214844 407.785156 Z M 160.167969 402.027344 L 168.675781 402.027344 L 179.367188 448.734375 L 172.578125 448.734375 L 170.421875 438.140625 L 157.910156 438.140625 L 155.691406 448.734375 L 149.476563 448.734375 L 160.167969 402.027344 "
       id="path3377" />
    <path
       style=" stroke:none;fill-rule:nonzero;fill:rgb(13.729858%,12.159729%,12.548828%);fill-opacity:1;"
       d="M 191.128906 407.289063 L 180.371094 407.289063 L 180.371094 402.027344 L 208.273438 402.027344 L 208.273438 407.289063 L 197.519531 407.289063 L 197.519531 448.734375 L 191.128906 448.734375 L 191.128906 407.289063 "
       id="path3379" />
    <path
       style=" stroke:none;fill-rule:nonzero;fill:rgb(13.729858%,12.159729%,12.548828%);fill-opacity:1;"
       d="M 215.140625 448.734375 L 215.140625 402.027344 L 236.0625 402.027344 L 236.0625 407.289063 L 221.53125 407.289063 L 221.53125 422.085938 L 235.203125 422.085938 L 235.203125 427.347656 L 221.53125 427.347656 L 221.53125 443.46875 L 236.492188 443.46875 L 236.492188 448.734375 L 215.140625 448.734375 "
       id="path3381" />
    <path
       style=" stroke:none;fill-rule:nonzero;fill:rgb(13.729858%,12.159729%,12.548828%);fill-opacity:1;"
       d="M 47.289063 503.234375 L 47.289063 456.523438 L 67.683594 456.523438 L 67.683594 461.789063 L 53.679688 461.789063 L 53.679688 476.585938 L 67.054688 476.585938 L 67.054688 481.847656 L 53.679688 481.847656 L 53.679688 503.234375 L 47.289063 503.234375 "
       id="path3383" />
    <path
       style=" stroke:none;fill-rule:nonzero;fill:rgb(13.729858%,12.159729%,12.548828%);fill-opacity:1;"
       d="M 74.773438 456.523438 L 81.164063 456.523438 L 81.164063 476.585938 L 94.667969 476.585938 L 94.667969 456.523438 L 101.058594 456.523438 L 101.058594 503.234375 L 94.667969 503.234375 L 94.667969 481.847656 L 81.164063 481.847656 L 81.164063 503.234375 L 74.773438 503.234375 L 74.773438 456.523438 "
       id="path3385" />
    <path
       style=" stroke:none;fill-rule:nonzero;fill:rgb(13.729858%,12.159729%,12.548828%);fill-opacity:1;"
       d="M 108.511719 489.03125 L 117.515625 489.03125 L 117.515625 483.933594 L 108.511719 483.933594 Z M 108.511719 489.03125 "
       id="path3387" />
    <path
       style=" stroke:none;fill-rule:nonzero;fill:rgb(13.729858%,12.159729%,12.548828%);fill-opacity:1;"
       d="M 124.945313 503.234375 L 124.945313 456.523438 L 145.339844 456.523438 L 145.339844 461.789063 L 131.335938 461.789063 L 131.335938 476.585938 L 144.710938 476.585938 L 144.710938 481.847656 L 131.335938 481.847656 L 131.335938 503.234375 L 124.945313 503.234375 "
       id="path3389" />
    <path
       style=" stroke:none;fill-rule:nonzero;fill:rgb(13.729858%,12.159729%,12.548828%);fill-opacity:1;"
       d="M 150.277344 470.726563 L 156.335938 470.726563 L 156.335938 474.632813 L 157.160156 473.472656 C 158.992188 471.222656 161.234375 470.074219 163.882813 470.03125 L 163.882813 476.085938 C 161.078125 476.085938 159.121094 476.765625 158.007813 478.125 C 156.890625 479.480469 156.335938 481.878906 156.335938 485.324219 L 156.335938 503.234375 L 150.277344 503.234375 L 150.277344 470.726563 "
       id="path3391" />
    <path
       style=" stroke:none;fill-rule:nonzero;fill:rgb(13.729858%,12.159729%,12.548828%);fill-opacity:1;"
       d="M 182.5625 487.773438 L 181.238281 487.773438 C 178.765625 487.773438 176.882813 488.351563 175.59375 489.511719 C 174.300781 490.667969 173.65625 492.355469 173.65625 494.558594 L 173.65625 494.492188 C 173.65625 496.238281 173.941406 497.484375 174.515625 498.234375 C 175.089844 498.984375 176.039063 499.359375 177.363281 499.359375 C 179.152344 499.359375 180.488281 498.628906 181.371094 497.175781 C 182.253906 495.71875 182.648438 493.589844 182.5625 490.785156 Z M 175.078125 503.929688 C 172.609375 503.929688 170.730469 503.144531 169.453125 501.578125 C 168.171875 500.011719 167.53125 497.726563 167.53125 494.726563 L 167.53125 494.792969 C 167.53125 490.488281 168.582031 487.492188 170.675781 485.804688 C 172.773438 484.117188 176.480469 483.273438 181.800781 483.273438 L 182.5625 483.273438 L 182.5625 479.398438 C 182.5625 477.855469 182.214844 476.667969 181.519531 475.839844 C 180.824219 475.011719 179.824219 474.597656 178.523438 474.597656 C 177.152344 474.597656 176.101563 475.0625 175.359375 475.988281 C 174.621094 476.917969 174.253906 478.242188 174.253906 479.960938 L 168.261719 479.960938 C 168.171875 476.851563 169.023438 474.417969 170.808594 472.664063 C 172.597656 470.90625 175.136719 470.03125 178.421875 470.03125 C 181.953125 470.03125 184.535156 470.824219 186.171875 472.414063 C 187.804688 474.003906 188.617188 476.507813 188.617188 479.929688 L 188.617188 503.234375 L 182.5625 503.234375 L 182.5625 499.855469 C 182.429688 500.230469 182.242188 500.597656 182 500.949219 C 180.695313 502.933594 178.390625 503.929688 175.078125 503.929688 "
       id="path3393" />
    <path
       style=" stroke:none;fill-rule:nonzero;fill:rgb(13.729858%,12.159729%,12.548828%);fill-opacity:1;"
       d="M 195.957031 470.726563 L 202.015625 470.726563 L 202.015625 473.40625 L 202.144531 473.273438 C 204.175781 471.113281 206.570313 470.03125 209.328125 470.03125 C 211.824219 470.03125 213.75 470.710938 215.105469 472.070313 C 216.464844 473.425781 217.144531 475.355469 217.144531 477.851563 L 217.144531 503.234375 L 211.21875 503.234375 L 211.21875 479.902344 C 211.21875 478.179688 210.855469 476.863281 210.140625 475.957031 C 209.425781 475.050781 208.371094 474.597656 206.980469 474.597656 C 205.28125 474.597656 204.027344 475.171875 203.222656 476.324219 C 202.417969 477.472656 202.015625 479.25 202.015625 481.660156 L 202.015625 503.234375 L 195.957031 503.234375 L 195.957031 470.726563 "
       id="path3395" />
    <path
       style=" stroke:none;fill-rule:nonzero;fill:rgb(13.729858%,12.159729%,12.548828%);fill-opacity:1;"
       d="M 230.738281 485.359375 L 230.757813 485.359375 L 239.324219 470.726563 L 245.71875 470.726563 L 237.214844 485.359375 L 246.382813 503.234375 L 240.09375 503.234375 Z M 230.757813 503.234375 L 224.699219 503.234375 L 224.699219 456.523438 L 230.757813 456.523438 L 230.757813 503.234375 "
       id="path3397" />
    <path
       style=" stroke:none;fill-rule:nonzero;fill:rgb(13.729858%,12.159729%,12.548828%);fill-opacity:1;"
       d="M 259.300781 475.195313 L 259.300781 503.234375 L 253.242188 503.234375 L 253.242188 475.195313 L 248.9375 475.195313 L 248.9375 470.726563 L 253.242188 470.726563 L 253.242188 464.636719 C 253.242188 461.613281 253.789063 459.433594 254.882813 458.097656 C 255.972656 456.761719 257.742188 456.09375 260.191406 456.09375 C 261.761719 456.09375 263.21875 456.214844 264.5625 456.457031 L 264.5625 460.730469 L 262.941406 460.664063 C 261.703125 460.664063 260.789063 460.988281 260.191406 461.640625 C 259.597656 462.289063 259.300781 463.289063 259.300781 464.636719 L 259.300781 470.726563 L 264.5625 470.726563 L 264.5625 475.195313 L 259.300781 475.195313 "
       id="path3399" />
    <path
       style=" stroke:none;fill-rule:nonzero;fill:rgb(13.729858%,12.159729%,12.548828%);fill-opacity:1;"
       d="M 275.019531 494.792969 C 275.019531 496.292969 275.328125 497.429688 275.945313 498.203125 C 276.5625 498.972656 277.46875 499.359375 278.660156 499.359375 C 280.472656 499.359375 281.8125 498.78125 282.683594 497.621094 C 283.554688 496.460938 283.992188 494.679688 283.992188 492.277344 L 283.992188 470.726563 L 290.050781 470.726563 L 290.050781 503.234375 L 283.992188 503.234375 L 283.992188 500.519531 L 283.957031 500.550781 C 281.929688 502.800781 279.566406 503.929688 276.875 503.929688 C 274.335938 503.929688 272.382813 503.242188 271.015625 501.875 C 269.644531 500.507813 268.964844 498.554688 268.964844 496.015625 L 268.964844 470.726563 L 275.019531 470.726563 L 275.019531 494.792969 "
       id="path3401" />
    <path
       style=" stroke:none;fill-rule:nonzero;fill:rgb(13.729858%,12.159729%,12.548828%);fill-opacity:1;"
       d="M 297.496094 470.726563 L 303.554688 470.726563 L 303.554688 474.632813 L 304.382813 473.472656 C 306.214844 471.222656 308.453125 470.074219 311.105469 470.03125 L 311.105469 476.085938 C 308.300781 476.085938 306.34375 476.765625 305.226563 478.125 C 304.113281 479.480469 303.554688 481.878906 303.554688 485.324219 L 303.554688 503.234375 L 297.496094 503.234375 L 297.496094 470.726563 "
       id="path3403" />
    <path
       style=" stroke:none;fill-rule:nonzero;fill:rgb(13.729858%,12.159729%,12.548828%);fill-opacity:1;"
       d="M 329.96875 503.464844 C 328.445313 503.792969 327.175781 503.949219 326.160156 503.929688 C 323.554688 503.929688 321.726563 503.410156 320.664063 502.371094 C 319.605469 501.335938 319.074219 499.558594 319.074219 497.042969 L 319.074219 475.195313 L 314.839844 475.195313 L 314.839844 470.726563 L 319.074219 470.726563 L 319.074219 464.867188 L 325.132813 462.351563 L 325.132813 470.726563 L 329.96875 470.726563 L 329.96875 475.195313 L 325.132813 475.195313 L 325.132813 496.082031 C 325.132813 497.296875 325.484375 498.144531 326.191406 498.628906 C 326.898438 499.117188 328.15625 499.359375 329.96875 499.359375 L 329.96875 503.464844 "
       id="path3405" />
  </g>
</svg>
